<?xml version="1.0" encoding="UTF-8"?>
<svg version="1.1" xmlns="http://www.w3.org/2000/svg" width="502" height="497">
<path d="M0 0 C41.17105987 -0.11899481 82.34077831 0.18892218 123.51077545 0.44538212 C133.4027104 0.50694583 143.29465493 0.56690064 153.18660033 0.62675762 C173.45774435 0.74945414 193.72887458 0.87426478 214 1 C214 18.82 214 36.64 214 55 C209.95886844 55.80822631 206.96593751 56.09830197 202.92456055 56.02172852 C201.70700073 56.00130493 200.48944092 55.98088135 199.23498535 55.95983887 C197.33009338 55.91977722 197.33009338 55.91977722 195.38671875 55.87890625 C194.21226196 55.85824097 193.03780518 55.83757568 191.82775879 55.81628418 C187.447562 55.73762 183.06753925 55.64949491 178.6875 55.5625 C168.890625 55.376875 159.09375 55.19125 149 55 C149 88.99 149 122.98 149 158 C149.66 158 150.32 158 151 158 C151.268125 157.29359375 151.53625 156.5871875 151.8125 155.859375 C153.46701173 151.87548491 155.52942906 148.12996766 157.5625 144.328125 C162.37280221 133.19122968 161.44553012 122.19833726 162 110 C179.16 110 196.32 110 214 110 C214 139.35937533 210.63549048 166.14557665 191 189 C190.43925781 189.69222656 189.87851562 190.38445312 189.30078125 191.09765625 C187.92132406 192.77772154 186.46736213 194.39613907 185 196 C184.34 196 183.68 196 183 196 C183 196.66 183 197.32 183 198 C182.34 198 181.68 198 181 198 C181 198.66 181 199.32 181 200 C160.31157962 216.20141217 137.44858004 223.22357401 111.3125 223.25 C110.62391907 223.25100708 109.93533813 223.25201416 109.22589111 223.25305176 C85.63365872 223.22976432 66.1271012 218.42439005 45 208 C45 207.34 45 206.68 45 206 C42.03 205.01 42.03 205.01 39 204 C39 203.34 39 202.68 39 202 C38.25105469 201.73832031 37.50210938 201.47664062 36.73046875 201.20703125 C22.50731633 194.91954327 12.50984385 174.50183068 7.10839844 160.72607422 C2.14224637 147.40368545 -0.11049962 135.34838215 -0.0390625 121.10546875 C-0.03624268 120.03695679 -0.03342285 118.96844482 -0.03051758 117.86755371 C-0.02319 115.24501296 -0.01293322 112.6225181 0 110 C7.38728102 109.97473308 14.77455098 109.9571684 22.16186523 109.94506836 C24.67716895 109.94002637 27.19246972 109.93319297 29.70776367 109.92456055 C33.31429775 109.91248906 36.92079323 109.90677051 40.52734375 109.90234375 C42.22575661 109.89460182 42.22575661 109.89460182 43.95848083 109.88670349 C45.51998619 109.88659019 45.51998619 109.88659019 47.11303711 109.88647461 C48.03459091 109.884254 48.95614471 109.88203339 49.90562439 109.87974548 C52 110 52 110 53 111 C53.05062214 112.44573093 53.03557367 113.89387758 52.9921875 115.33984375 C52.97542969 116.23896484 52.95867187 117.13808594 52.94140625 118.06445312 C52.89794294 119.94488047 52.84618462 121.82513887 52.78515625 123.70507812 C52.65016155 132.37541976 54.28819016 139.98825645 59 147.375 C59.495 148.16648437 59.99 148.95796875 60.5 149.7734375 C61.93078754 151.89726276 63.46350945 153.95134593 65 156 C65 122.67 65 89.34 65 55 C43.98244466 55.36863135 43.98244466 55.36863135 22.96508789 55.74829102 C20.34261738 55.79223158 17.72014054 55.83579623 15.09765625 55.87890625 C14.41191025 55.89227524 13.72616425 55.90564423 13.01963806 55.91941833 C11.00935243 55.95822332 8.99893715 55.99012591 6.98852539 56.02172852 C5.28642662 56.05170677 5.28642662 56.05170677 3.54994202 56.08229065 C1 56 1 56 0 55 C-0.0935919 53.28134591 -0.11744611 51.55884256 -0.11352539 49.83764648 C-0.11344986 48.73658066 -0.11337433 47.63551483 -0.11329651 46.50108337 C-0.10813522 45.3031868 -0.10297394 44.10529022 -0.09765625 42.87109375 C-0.0962413 41.65172623 -0.09482635 40.4323587 -0.09336853 39.17604065 C-0.08774967 35.2631693 -0.07519396 31.35035419 -0.0625 27.4375 C-0.05748743 24.79231853 -0.0529241 22.14713617 -0.04882812 19.50195312 C-0.03777411 13.00128274 -0.02101764 6.50064539 0 0 Z " fill="#264F6A" transform="translate(144,123)"/>
<path d="M0 0 C1.17236961 -0.00143509 1.17236961 -0.00143509 2.36842346 -0.00289917 C4.00106895 -0.00357352 5.63371723 -0.00177186 7.26635742 0.00244141 C9.77203272 0.00785164 12.27753292 0.00244526 14.78320312 -0.00390625 C16.37630248 -0.00324633 17.96940172 -0.00196695 19.5625 0 C20.31139999 -0.00202423 21.06029999 -0.00404846 21.83189392 -0.00613403 C27.08641477 0.01781676 27.08641477 0.01781676 29.31640625 1.1328125 C31.31749903 0.80610347 33.31756756 0.47304036 35.31640625 0.1328125 C36.31640625 1.1328125 36.31640625 1.1328125 36.4140625 3.3125 C36.39666016 4.64667969 36.39666016 4.64667969 36.37890625 6.0078125 C36.36988281 6.89210937 36.36085938 7.77640625 36.3515625 8.6875 C36.33416016 9.89792969 36.33416016 9.89792969 36.31640625 11.1328125 C36.31640625 12.1228125 36.31640625 13.1128125 36.31640625 14.1328125 C36.31640625 14.4628125 36.31640625 14.7928125 36.31640625 15.1328125 C22.12640625 15.1328125 7.93640625 15.1328125 -6.68359375 15.1328125 C-6.68359375 49.1228125 -6.68359375 83.1128125 -6.68359375 118.1328125 C-6.02359375 118.1328125 -5.36359375 118.1328125 -4.68359375 118.1328125 C-4.41546875 117.42640625 -4.14734375 116.72 -3.87109375 115.9921875 C-2.21658202 112.00829741 -0.15416469 108.26278016 1.87890625 104.4609375 C6.68920846 93.32404218 5.76193637 82.33114976 6.31640625 70.1328125 C23.47640625 70.1328125 40.63640625 70.1328125 58.31640625 70.1328125 C58.31640625 99.49218783 54.95189673 126.27838915 35.31640625 149.1328125 C34.75566406 149.82503906 34.19492187 150.51726562 33.6171875 151.23046875 C32.23773031 152.91053404 30.78376838 154.52895157 29.31640625 156.1328125 C28.65640625 156.1328125 27.99640625 156.1328125 27.31640625 156.1328125 C27.31640625 156.7928125 27.31640625 157.4528125 27.31640625 158.1328125 C26.65640625 158.1328125 25.99640625 158.1328125 25.31640625 158.1328125 C25.31640625 158.7928125 25.31640625 159.4528125 25.31640625 160.1328125 C4.62798587 176.33422467 -18.23501371 183.35638651 -44.37109375 183.3828125 C-45.05967468 183.38381958 -45.74825562 183.38482666 -46.45770264 183.38586426 C-70.04993503 183.36257682 -89.55649255 178.55720255 -110.68359375 168.1328125 C-110.68359375 167.4728125 -110.68359375 166.8128125 -110.68359375 166.1328125 C-113.65359375 165.1428125 -113.65359375 165.1428125 -116.68359375 164.1328125 C-116.68359375 163.4728125 -116.68359375 162.8128125 -116.68359375 162.1328125 C-117.43253906 161.87113281 -118.18148437 161.60945312 -118.953125 161.33984375 C-133.17627742 155.05235577 -143.1737499 134.63464318 -148.57519531 120.85888672 C-154.82418506 104.0951087 -155.96863906 88.93230831 -155.68359375 71.1328125 C-150.07359375 71.1328125 -144.46359375 71.1328125 -138.68359375 71.1328125 C-138.64621094 72.5353125 -138.60882813 73.9378125 -138.5703125 75.3828125 C-137.74816392 100.98266213 -133.28336573 123.37720258 -115.2734375 142.7109375 C-101.02465242 156.03559323 -86.32433627 160.90257755 -67.0546875 160.50390625 C-54.70358834 159.90313442 -43.85963738 152.8350963 -35.43359375 144.0078125 C-24.14162222 129.5645931 -23.399079 113.52890755 -23.26953125 95.890625 C-23.2507245 94.2346816 -23.23114495 92.57874682 -23.21084595 90.92282104 C-23.15985807 86.57836397 -23.12016121 82.23387404 -23.08270264 77.88928223 C-23.05101038 74.43009293 -23.01132027 70.97101947 -22.97105026 67.51192093 C-22.93165938 64.10660941 -22.89518783 60.70127 -22.85916901 57.29592133 C-22.84111528 55.61261019 -22.82239557 53.92930606 -22.8030014 52.24600983 C-22.70309089 43.43314059 -22.66649025 34.63144749 -22.83691406 25.81933594 C-22.87007697 23.66495909 -22.90190174 21.51056547 -22.93361282 19.35616684 C-22.97169948 17.36258054 -23.03742167 15.36958271 -23.10385132 13.3767395 C-23.13099716 11.60446487 -23.13099716 11.60446487 -23.15869141 9.79638672 C-23.2015477 8.25493484 -23.2015477 8.25493484 -23.24526978 6.68234253 C-22.68359375 4.1328125 -22.68359375 4.1328125 -20.42076111 2.32128906 C-17.92080453 1.23580929 -16.10435947 0.67229595 -13.41381836 0.45361328 C-12.63384491 0.38934143 -11.85387146 0.32506958 -11.05026245 0.2588501 C-7.3636574 0.06251892 -3.69151829 -0.01017038 0 0 Z " fill="#1D3A51" transform="translate(299.68359375,162.8671875)"/>
<path d="M0 0 C27.39 0 54.78 0 83 0 C83 6.93 83 13.86 83 21 C61.55 21 40.1 21 18 21 C18.03480469 29.69085938 18.06960938 38.38171875 18.10546875 47.3359375 C18.12275299 53.55190016 18.1381306 59.7678447 18.1507616 65.98381615 C18.16736443 74.02979235 18.18841939 82.07567492 18.22631836 90.12158203 C18.25631746 96.49342023 18.27559783 102.86518766 18.28226548 109.23709452 C18.28616005 112.60775115 18.29524624 115.97820539 18.31719017 119.34879684 C18.33904907 123.12116112 18.3419633 126.89310966 18.34057617 130.66552734 C18.351362 131.77036469 18.36214783 132.87520203 18.3732605 134.01351929 C18.32102994 147.18862948 13.84298845 159.06376719 4.75 168.8125 C-5.47027581 178.1868022 -17.13169809 183.73856258 -31 183.4375 C-32.38058594 183.44813477 -32.38058594 183.44813477 -33.7890625 183.45898438 C-50.8944992 183.30238531 -64.13766403 174.4044418 -76.1875 162.9140625 C-94.69600625 143.46567116 -97.41052576 118.63505323 -97 93 C-102.61 93 -108.22 93 -114 93 C-114 92.67 -114 92.34 -114 92 C-96.84 92 -79.68 92 -62 92 C-62 92.33 -62 92.66 -62 93 C-67.28 93 -72.56 93 -78 93 C-77.70609088 111.85426987 -77.26325293 126.23625926 -66 142 C-65.49984375 142.79277344 -64.9996875 143.58554687 -64.484375 144.40234375 C-59.13305206 152.30770719 -50.039285 157.7307335 -40.9375 160.5 C-27.32922613 162.22803478 -18.24319058 160.1315683 -6.91015625 152.5625 C-3.09547078 149.44210289 -1.75262933 146.82007397 -1 142 C-0.902315 140.00431259 -0.8541479 138.00589674 -0.84178162 136.00785828 C-0.8319928 134.80617508 -0.82220398 133.60449188 -0.81211853 132.36639404 C-0.80636307 131.05656555 -0.8006076 129.74673706 -0.79467773 128.3972168 C-0.78509271 126.9974794 -0.77508226 125.59774486 -0.76467896 124.19801331 C-0.73769148 120.40506024 -0.71664867 116.61209481 -0.69667697 112.81909919 C-0.67477935 108.85258731 -0.64740916 104.88611328 -0.62062073 100.91963196 C-0.57074485 93.41163413 -0.52578712 85.90361524 -0.48259836 78.3955763 C-0.42394034 68.24776832 -0.35768093 58.10001016 -0.29184818 47.95224667 C-0.18835336 31.96819803 -0.09501113 15.98410653 0 0 Z " fill="#F5F8F8" transform="translate(258,141)"/>
<path d="M0 0 C27.39 0 54.78 0 83 0 C82.87013467 35.07707411 82.87013467 35.07707411 82.79101562 49.77929688 C82.73653196 59.9295894 82.68511891 70.07983144 82.65356445 80.23022461 C82.63056911 87.62280693 82.59715395 95.0152567 82.55129844 102.40773386 C82.52738686 106.32093065 82.50864459 110.23399633 82.50238609 114.14726448 C82.49632583 117.83354378 82.47629236 121.5194877 82.44572449 125.2056427 C82.43279229 127.19739375 82.43451162 129.18922321 82.4367218 131.18101501 C82.37070717 137.47817447 82.28517981 142.52426645 79 148 C76.6875 148.875 76.6875 148.875 74 149 C72.906875 149.185625 71.81375 149.37125 70.6875 149.5625 C69.3571875 149.7790625 69.3571875 149.7790625 68 150 C66.86531417 146.5959425 66.71041677 143.6433425 66.5 140.0625 C66.29740594 135.52313341 66.29740594 135.52313341 65.48993778 131.07471848 C64.95237542 128.79832624 64.87700137 126.79483006 64.87974548 124.45684814 C64.87768349 123.09812843 64.87768349 123.09812843 64.87557983 121.71195984 C64.88097275 120.23273796 64.88097275 120.23273796 64.88647461 118.72363281 C64.88632858 117.67941666 64.88618256 116.6352005 64.8860321 115.55934143 C64.88672887 112.10724817 64.89451027 108.65520884 64.90234375 105.203125 C64.90420877 102.80987579 64.90563228 100.41662619 64.90663147 98.02337646 C64.91045004 91.72364244 64.92027473 85.42393146 64.93133545 79.12420654 C64.94336198 71.56594824 64.94795495 64.00768224 64.95378876 56.44941711 C64.9634868 44.96626205 64.98264802 33.48315755 65 22 C43.55 22 22.1 22 0 22 C0 14.74 0 7.48 0 0 Z " fill="#65B2D3" transform="translate(161,140)"/>
<path d="M0 0 C17.16 0 34.32 0 52 0 C52 0.33 52 0.66 52 1 C46.06 1 40.12 1 34 1 C34.05220703 3.82304687 34.05220703 3.82304687 34.10546875 6.703125 C34.13362863 9.218741 34.16092641 11.73436675 34.1875 14.25 C34.21263672 15.48492187 34.23777344 16.71984375 34.26367188 17.9921875 C34.43324769 39.47179092 25.44624418 58.36136741 11 74 C1.80099357 83.02378726 -13.30056471 92.76163943 -26.53125 94.29296875 C-28.35416667 94.1953125 -30.17708333 94.09765625 -32 94 C-31.401875 93.7525 -30.80375 93.505 -30.1875 93.25 C-27.90109086 92.13773642 -27.90109086 92.13773642 -26.5625 90.0625 C-25 88 -25 88 -22.5 86.625 C-19.19578536 84.47726048 -18.42446502 82.66291006 -17 79 C-16.76309768 77.52205255 -16.53441471 76.04277202 -16.3125 74.5625 C-15.14523736 68.80336117 -11.51147793 66.40548952 -7 63 C2.08647788 55.62046958 8.20804389 48.16520409 12 37 C12.391875 35.96875 12.78375 34.9375 13.1875 33.875 C15.23728864 26.62190175 15.26285436 18.98622878 15.5625 11.5 C15.62727539 9.98019531 15.62727539 9.98019531 15.69335938 8.4296875 C15.79849128 5.95324717 15.89965343 3.47663885 16 1 C10.72 1 5.44 1 0 1 C0 0.67 0 0.34 0 0 Z " fill="#4DA1CE" transform="translate(306,233)"/>
<path d="M0 0 C1.09815285 0.00303635 1.09815285 0.00303635 2.2184906 0.00613403 C2.97818649 0.00517731 3.73788239 0.00422058 4.52059937 0.00323486 C6.14230939 0.00255188 7.7640221 0.00441435 9.38572693 0.00857544 C11.80856435 0.01381195 14.23120675 0.00869331 16.65403748 0.00222778 C26.75128 -0.00165682 36.73634522 0.41168543 46.80833435 1.13894653 C46.80833435 7.40894653 46.80833435 13.67894653 46.80833435 20.13894653 C29.31833435 20.13894653 11.82833435 20.13894653 -6.19166565 20.13894653 C-6.19166565 0.02917234 -6.19166565 0.02917234 0 0 Z " fill="#253F54" transform="translate(150.19166564941406,194.86105346679688)"/>
<path d="M0 0 C1.3173967 -0.00472824 1.3173967 -0.00472824 2.66140747 -0.009552 C3.61860687 -0.00752777 4.57580627 -0.00550354 5.56201172 -0.00341797 C6.54281708 -0.00437469 7.52362244 -0.00533142 8.53414917 -0.00631714 C10.61733056 -0.00699945 12.70051406 -0.00514164 14.78369141 -0.00097656 C17.95724347 0.00433684 21.13065179 -0.00090203 24.30419922 -0.00732422 C26.32763703 -0.00666277 28.35107475 -0.00538024 30.37451172 -0.00341797 C31.31956573 -0.0054422 32.26461975 -0.00746643 33.23831177 -0.009552 C34.1354892 -0.00639984 35.03266663 -0.00324768 35.95703125 0 C37.12832077 0.00119339 37.12832077 0.00119339 38.32327271 0.00241089 C41.52253421 0.16213789 44.69564717 0.6763871 47.86669922 1.12939453 C47.86669922 7.39939453 47.86669922 13.66939453 47.86669922 20.12939453 C30.70669922 20.12939453 13.54669922 20.12939453 -4.13330078 20.12939453 C-4.88619675 15.61201869 -5.26862278 11.83276863 -5.25830078 7.31689453 C-5.26087891 6.17607422 -5.26345703 5.03525391 -5.26611328 3.85986328 C-5.0581849 -0.41489953 -3.87558986 0.003973 0 0 Z " fill="#224159" transform="translate(310.13330078125,194.87060546875)"/>
<path d="M0 0 C1.76250847 0.00068733 1.76250847 0.00068733 3.56062317 0.00138855 C5.96824189 0.00433893 8.37586003 0.01199621 10.78344727 0.0246582 C14.48785991 0.04344199 18.19202812 0.04516332 21.89648438 0.04492188 C24.2643251 0.04982085 26.63216414 0.05564194 29 0.0625 C30.10176071 0.06361282 31.20352142 0.06472565 32.33866882 0.06587219 C33.84974968 0.07544197 33.84974968 0.07544197 35.39135742 0.08520508 C36.27651535 0.08901688 37.16167328 0.09282867 38.07365417 0.09675598 C40.20703125 0.23046875 40.20703125 0.23046875 42.20703125 1.23046875 C42.19542969 2.05289063 42.18382812 2.8753125 42.171875 3.72265625 C42.12854258 9.08349592 42.13502074 14.33970741 42.76953125 19.66796875 C43.2066732 23.38974674 43.07907222 26.548518 42.20703125 30.23046875 C39.82139048 29.65462443 37.54020341 29.0081928 35.20703125 28.23046875 C34.71203125 27.24046875 34.71203125 27.24046875 34.20703125 26.23046875 C33.15515625 26.41609375 32.10328125 26.60171875 31.01953125 26.79296875 C27.20703125 27.23046875 27.20703125 27.23046875 24.91699219 26.76611328 C21.57909261 26.10635187 18.43773808 26.10070907 15.03515625 26.09765625 C14.35330261 26.09669952 13.67144897 26.0957428 12.96893311 26.09475708 C11.53006905 26.09407897 10.09120187 26.09590743 8.65234375 26.10009766 C6.47779248 26.10541796 4.30345088 26.10015732 2.12890625 26.09375 C-10.74644088 25.62488515 -10.74644088 25.62488515 -22.79296875 29.23046875 C-22.78511353 30.71921509 -22.78511353 30.71921509 -22.77709961 32.23803711 C-22.65680062 57.65761221 -22.88190346 83.06478352 -23.29296875 108.48046875 C-23.30492657 109.22006207 -23.31688438 109.95965538 -23.32920456 110.72166061 C-23.47799438 119.89136366 -23.63266534 129.06095923 -23.79296875 138.23046875 C-24.12296875 138.23046875 -24.45296875 138.23046875 -24.79296875 138.23046875 C-24.79296875 100.61046875 -24.79296875 62.99046875 -24.79296875 24.23046875 C-3.34296875 24.23046875 18.10703125 24.23046875 40.20703125 24.23046875 C40.20703125 17.30046875 40.20703125 10.37046875 40.20703125 3.23046875 C12.81703125 3.23046875 -14.57296875 3.23046875 -42.79296875 3.23046875 C-42.79296875 50.09046875 -42.79296875 96.95046875 -42.79296875 145.23046875 C-43.12296875 145.23046875 -43.45296875 145.23046875 -43.79296875 145.23046875 C-43.79296875 98.04046875 -43.79296875 50.85046875 -43.79296875 2.23046875 C-10.41486412 -0.0714695 -10.41486412 -0.0714695 0 0 Z " fill="#5F788C" transform="translate(300.79296875,137.76953125)"/>
<path d="M0 0 C5.61 0 11.22 0 17 0 C17 10.23 17 20.46 17 31 C15.68 31.33 14.36 31.66 13 32 C11.3255761 32.6469365 9.65697379 33.30959426 8 34 C7.67 33.67 7.34 33.34 7 33 C6.67 33.99 6.34 34.98 6 36 C3 35 3 35 2.05737305 33.17626953 C-0.11986301 25.99421811 -0.35685369 19.34393192 -0.1875 11.875 C-0.16719727 10.15410156 -0.16719727 10.15410156 -0.14648438 8.3984375 C-0.1114883 5.59875126 -0.05769571 2.79931045 0 0 Z " fill="#1D3A54" transform="translate(180,234)"/>
<path d="M0 0 C55.44 0 110.88 0 168 0 C168 17.82 168 35.64 168 54 C165.525 54.495 165.525 54.495 163 55 C162.67 54.01 162.34 53.02 162 52 C162.66 52 163.32 52 164 52 C164.95371782 42.24142306 165.40693545 32.76989494 164.4375 23 C163.94984416 17.94551312 164.22637164 13.29732903 164.94140625 8.27734375 C165.22606626 5.71518886 165.22606626 5.71518886 163 3 C159.10244891 1.74630728 155.57544575 2.05772516 151.53857422 2.43139648 C144.46872281 3.00446141 137.4727152 3.12940245 130.3828125 3.09765625 C129.15964325 3.0962413 127.936474 3.09482635 126.67623901 3.09336853 C122.82579955 3.08783678 118.97542145 3.07529771 115.125 3.0625 C112.49088627 3.05747616 109.85677161 3.05291481 107.22265625 3.04882812 C100.81508375 3.03788984 94.40754626 3.0212215 88 3 C88 2.34 88 1.68 88 1 C58.96 1 29.92 1 0 1 C0 0.67 0 0.34 0 0 Z " fill="#4F7D97" transform="translate(190,124)"/>
<path d="M0 0 C0.33 0 0.66 0 1 0 C1.1974877 3.08277856 1.38123332 6.1662285 1.5625 9.25 C1.61857422 10.12269531 1.67464844 10.99539063 1.73242188 11.89453125 C1.78076172 12.73886719 1.82910156 13.58320313 1.87890625 14.453125 C1.9260376 15.22817383 1.97316895 16.00322266 2.02172852 16.80175781 C1.99969234 19.03112585 1.6303897 20.86898567 1 23 C3.31 23 5.62 23 8 23 C7.04076547 29.1151201 7.04076547 29.1151201 4.2265625 31.5078125 C2.18726726 32.77384338 0.14338858 33.92021745 -2 35 C-2.57492188 35.37253906 -3.14984375 35.74507813 -3.7421875 36.12890625 C-7.18112049 37.45569182 -10.62178818 37.20833349 -14.25 37.125 C-14.99507812 37.11597656 -15.74015625 37.10695313 -16.5078125 37.09765625 C-18.33868059 37.07418358 -20.16938238 37.03831525 -22 37 C-22.33 35.68 -22.66 34.36 -23 33 C-21.515 32.505 -21.515 32.505 -20 32 C-18.33289654 30.50014391 -18.33289654 30.50014391 -17 29 C-16.67 29.33 -16.34 29.66 -16 30 C-13.51046981 30.31594433 -13.51046981 30.31594433 -10.625 30.375 C-9.15933594 30.44847656 -9.15933594 30.44847656 -7.6640625 30.5234375 C-4.82986538 30.27517127 -4.82986538 30.27517127 -3.37915039 27.83959961 C-1.86847892 24.72920488 -1.49867588 22.48013825 -1.26953125 19.04296875 C-1.18896484 17.93115234 -1.10839844 16.81933594 -1.02539062 15.67382812 C-0.95513672 14.52333984 -0.88488281 13.37285156 -0.8125 12.1875 C-0.73064453 11.01767578 -0.64878906 9.84785156 -0.56445312 8.64257812 C-0.36459728 5.76230267 -0.17687514 2.88176285 0 0 Z " fill="#1C4566" transform="translate(244,265)"/>
<path d="M0 0 C17.16 0 34.32 0 52 0 C52 0.33 52 0.66 52 1 C46.06 1 40.12 1 34 1 C34 8.26 34 15.52 34 23 C33.67 23 33.34 23 33 23 C32.67 17.72 32.34 12.44 32 7 C31.34 7 30.68 7 30 7 C29.67 6.67 29.34 6.34 29 6 C28.443125 6.144375 27.88625 6.28875 27.3125 6.4375 C24.49564264 7.12268152 21.88993353 7.03558058 19 7 C18.8031879 9.04079005 18.61797169 11.08270007 18.4375 13.125 C18.33308594 14.26195312 18.22867187 15.39890625 18.12109375 16.5703125 C18.00391984 19.88897993 18.3344928 22.7562686 19 26 C18.01 26.33 17.02 26.66 16 27 C16 18.42 16 9.84 16 1 C10.72 1 5.44 1 0 1 C0 0.67 0 0.34 0 0 Z " fill="#6CB7D4" transform="translate(306,233)"/>
<path d="M0 0 C4.45821166 -0.08674429 8.91620804 -0.14030513 13.375 -0.1875 C14.64601562 -0.21263672 15.91703125 -0.23777344 17.2265625 -0.26367188 C18.43828125 -0.27333984 19.65 -0.28300781 20.8984375 -0.29296875 C22.01911621 -0.3086792 23.13979492 -0.32438965 24.29443359 -0.34057617 C25.18727051 -0.22818604 26.08010742 -0.1157959 27 0 C28.95167729 2.92751593 29.36553384 4.0847289 29.75 7.4375 C29.89695313 8.58025391 29.89695313 8.58025391 30.046875 9.74609375 C29.99245195 12.36293518 29.18679964 13.69860146 28 16 C27.72122601 18.14943335 27.72122601 18.14943335 27.8125 20.4375 C27.82796875 21.30632812 27.8434375 22.17515625 27.859375 23.0703125 C28.06714245 27.39880112 28.45347172 31.70741091 28.87890625 36.01953125 C28.99557318 38.89104316 28.69297495 41.22296705 28 44 C27.67 44 27.34 44 27 44 C26.67 58.85 26.34 73.7 26 89 C25.67 89 25.34 89 25 89 C25 60.29 25 31.58 25 2 C16.75 1.67 8.5 1.34 0 1 C0 0.67 0 0.34 0 0 Z " fill="#697583" transform="translate(184,176)"/>
<path d="M0 0 C0.66 0.33 1.32 0.66 2 1 C0.99084283 7.50680446 -0.75262388 12.86674257 -5 18 C-7.6875 19.8125 -7.6875 19.8125 -10 21 C-10.66 21.99 -11.32 22.98 -12 24 C-11.67 24.66 -11.34 25.32 -11 26 C-15.40914783 27.10228696 -19.48382401 27.07654536 -24 27 C-21.20957275 23.56638916 -18.55297791 20.43532304 -15.0625 17.6875 C-11.46235014 14.8507327 -9.21397135 11.15607956 -6.6796875 7.3828125 C-4.68676592 4.55564468 -2.55210208 2.3200928 0 0 Z " fill="#2F76AA" transform="translate(290,302)"/>
<path d="M0 0 C3.80195965 0.00544056 7.60380527 -0.00001837 11.40576172 -0.00634766 C13.82373073 -0.00568819 16.24169967 -0.00440976 18.65966797 -0.00244141 C19.79593628 -0.00446564 20.93220459 -0.00648987 22.10290527 -0.00857544 C23.14579712 -0.00542328 24.18868896 -0.00227112 25.26318359 0.00097656 C26.18151978 0.00177216 27.09985596 0.00256775 28.04602051 0.00338745 C30.25341797 0.13037109 30.25341797 0.13037109 32.25341797 1.13037109 C32.24181641 1.95279297 32.23021484 2.77521484 32.21826172 3.62255859 C32.1749293 8.98339827 32.18140746 14.23960976 32.81591797 19.56787109 C33.25305992 23.28964909 33.12545894 26.44842034 32.25341797 30.13037109 C29.8677772 29.55452677 27.58659013 28.90809515 25.25341797 28.13037109 C24.75841797 27.14037109 24.75841797 27.14037109 24.25341797 26.13037109 C21.931852 25.72307882 19.59653927 25.38598433 17.25341797 25.13037109 C17.25341797 24.80037109 17.25341797 24.47037109 17.25341797 24.13037109 C21.54341797 24.13037109 25.83341797 24.13037109 30.25341797 24.13037109 C30.25341797 16.87037109 30.25341797 9.61037109 30.25341797 2.13037109 C6.16341797 2.13037109 -17.92658203 2.13037109 -42.74658203 2.13037109 C-42.74658203 1.80037109 -42.74658203 1.47037109 -42.74658203 1.13037109 C-28.49772878 0.08991092 -14.28269023 -0.0244277 0 0 Z " fill="#437898" transform="translate(310.74658203125,137.86962890625)"/>
<path d="M0 0 C0.33 0 0.66 0 1 0 C1.31426991 5.72455909 1.61688667 11.44958207 1.90942383 17.17529297 C2.01018228 19.11686165 2.1139436 21.05827721 2.22094727 22.99951172 C3.83223455 52.3355309 3.83223455 52.3355309 1 58 C2.32 58.33 3.64 58.66 5 59 C3.515 59.495 3.515 59.495 2 60 C2.23004734 65.3907997 2.23004734 65.3907997 4.5625 70 C5.036875 70.33 5.51125 70.66 6 71 C4.79618552 73.49361571 3.54571278 75.68143083 2 78 C0.68 77.67 -0.64 77.34 -2 77 C-2 76.01 -2 75.02 -2 74 C-1.34 74 -0.68 74 0 74 C0 49.58 0 25.16 0 0 Z " fill="#182636" transform="translate(210,206)"/>
<path d="M0 0 C11.55 0 23.1 0 35 0 C35.495 1.485 35.495 1.485 36 3 C31.458712 3.19754468 26.91696597 3.38126885 22.375 3.5625 C21.08980469 3.61857422 19.80460937 3.67464844 18.48046875 3.73242188 C16.61455078 3.80493164 16.61455078 3.80493164 14.7109375 3.87890625 C13.56931152 3.9260376 12.42768555 3.97316895 11.25146484 4.02172852 C8.05265814 4.0003519 5.13383696 3.61639045 2 3 C2.08378906 3.90621094 2.16757813 4.81242187 2.25390625 5.74609375 C2.35574219 6.96425781 2.45757812 8.18242187 2.5625 9.4375 C2.66691406 10.63246094 2.77132812 11.82742187 2.87890625 13.05859375 C2.96770971 15.94900323 2.89781021 18.31708419 2.53515625 21.13671875 C1.76975329 27.20615031 1.85447761 33.26616778 1.875 39.375 C1.87113281 40.54933594 1.86726562 41.72367188 1.86328125 42.93359375 C1.86457031 44.05636719 1.86585938 45.17914063 1.8671875 46.3359375 C1.86831543 47.35220215 1.86944336 48.3684668 1.87060547 49.41552734 C1.88996988 52.11723412 1.88996988 52.11723412 3 55 C3.99 55.33 4.98 55.66 6 56 C4.33388095 56.042721 2.66617115 56.04063832 1 56 C0 55 0 55 -0.12025452 52.79173279 C-0.11803391 51.81688431 -0.11581329 50.84203583 -0.11352539 49.83764648 C-0.11344986 48.73658066 -0.11337433 47.63551483 -0.11329651 46.50108337 C-0.10813522 45.3031868 -0.10297394 44.10529022 -0.09765625 42.87109375 C-0.0962413 41.65172623 -0.09482635 40.4323587 -0.09336853 39.17604065 C-0.08774967 35.2631693 -0.07519396 31.35035419 -0.0625 27.4375 C-0.05748743 24.79231853 -0.0529241 22.14713617 -0.04882812 19.50195312 C-0.03862296 13.00126274 -0.01905121 6.50069467 0 0 Z " fill="#718398" transform="translate(144,123)"/>
<path d="M0 0 C0.99 0.66 1.98 1.32 3 2 C-7.23855202 12.19136975 -23.62560113 24.23242848 -38.8125 24.3125 C-39.864375 24.209375 -40.91625 24.10625 -42 24 C-41.401875 23.7525 -40.80375 23.505 -40.1875 23.25 C-37.8763038 22.13660865 -37.8763038 22.13660865 -36.5625 19.9375 C-35 18 -35 18 -32.5625 17.1875 C-30 17 -30 17 -28.125 17.625 C-24.59503688 18.24793467 -22.09685562 16.57764343 -19 15 C-18.67 14.34 -18.34 13.68 -18 13 C-17.195625 12.71125 -16.39125 12.4225 -15.5625 12.125 C-12.51667922 10.78781039 -12.25769518 9.96456721 -11 7 C-10 6 -9 5 -8 4 C-8 3.34 -8 2.68 -8 2 C-7.34 2 -6.68 2 -6 2 C-6 2.66 -6 3.32 -6 4 C-5.01 4 -4.02 4 -3 4 C-1.29467677 2.05990478 -1.29467677 2.05990478 0 0 Z " fill="#3F88B7" transform="translate(316,303)"/>
<path d="M0 0 C1.07610988 3.22832965 0.93935312 3.9001347 0 7 C-0.08636719 7.62003906 -0.17273438 8.24007813 -0.26171875 8.87890625 C-1.29011316 11.83349971 -3.03551961 13.03229767 -5.4375 15 C-8.5388358 17.54877036 -10.24783943 19.4372735 -12 23 C-13.74012345 24.38245373 -15.55017791 25.49241718 -17.44140625 26.65625 C-19.36470386 28.3144314 -19.6184936 29.53327368 -20 32 C-20.63808594 32.04898438 -21.27617187 32.09796875 -21.93359375 32.1484375 C-22.75988281 32.22320312 -23.58617187 32.29796875 -24.4375 32.375 C-25.67306641 32.47941406 -25.67306641 32.47941406 -26.93359375 32.5859375 C-27.95646484 32.79089844 -27.95646484 32.79089844 -29 33 C-29.33 33.66 -29.66 34.32 -30 35 C-29.70223778 31.77424265 -29.42807797 30.37969368 -26.9609375 28.19140625 C-26.10757812 27.65386719 -25.25421875 27.11632812 -24.375 26.5625 C-23.46621094 25.95921875 -22.55742187 25.3559375 -21.62109375 24.734375 C-20.75613281 24.16203125 -19.89117187 23.5896875 -19 23 C-10.84245648 17.17079025 -4.98088507 8.59045052 0 0 Z " fill="#09334E" transform="translate(330,288)"/>
<path d="M0 0 C27.06 0 54.12 0 82 0 C82 0.99 82 1.98 82 3 C81.32204376 2.83799606 80.64408752 2.67599213 79.94558716 2.50907898 C76.5395888 1.9204282 73.32814576 1.86520517 69.87060547 1.85473633 C68.82335297 1.84969841 68.82335297 1.84969841 67.75494385 1.84455872 C65.45900674 1.83509887 63.16314285 1.83310855 60.8671875 1.83203125 C59.26726247 1.82881675 57.66733774 1.82545253 56.06741333 1.82194519 C52.72022825 1.81596748 49.37306895 1.81410405 46.02587891 1.81469727 C41.73393016 1.81479916 37.44214582 1.8011125 33.15023613 1.78392506 C29.84916419 1.7728201 26.54813232 1.77077754 23.24704361 1.77130699 C21.66418004 1.77012593 20.08131547 1.7656971 18.49847031 1.75797462 C16.28906347 1.74819891 14.08001788 1.75104229 11.87060547 1.75708008 C10.61327606 1.75565506 9.35594666 1.75423004 8.06051636 1.75276184 C4.8268259 1.76452043 4.8268259 1.76452043 2 4 C1.26393501 7.56769552 1.26393501 7.56769552 1 11 C0.67 11 0.34 11 0 11 C0 7.37 0 3.74 0 0 Z " fill="#8BCBE7" transform="translate(162,141)"/>
<path d="M0 0 C1.32 0 2.64 0 4 0 C4 0.66 4 1.32 4 2 C4.66 2.33 5.32 2.66 6 3 C6.59355614 5.64860427 6.74209269 8.29197322 7 11 C7.99 11 8.98 11 10 11 C10 11.66 10 12.32 10 13 C10.66 13 11.32 13 12 13 C12 12.01 12 11.02 12 10 C12.99 10.33 13.98 10.66 15 11 C14.34 12.32 13.68 13.64 13 15 C13.66 15.33 14.32 15.66 15 16 C15 16.66 15 17.32 15 18 C16.32 17.67 17.64 17.34 19 17 C22 21.625 22 21.625 22 25 C16.96399408 24.42445647 13.96435904 22.31921337 10.69311523 18.45703125 C9.35599356 16.70738529 8.0773283 14.92752384 6.8125 13.125 C6.37486328 12.52558594 5.93722656 11.92617188 5.48632812 11.30859375 C2.89872559 7.66619751 1.19425436 4.36336508 0 0 Z " fill="#20354B" transform="translate(185,271)"/>
<path d="M0 0 C0.33 0 0.66 0 1 0 C1 27.39 1 54.78 1 83 C-1 82 -1 82 -2 79 C-2.6875 76.5 -2.6875 76.5 -3 74 C-2.34 73.01 -1.68 72.02 -1 71 C-0.66945595 67.82416873 -0.66945595 67.82416873 -0.68115234 64.1418457 C-0.66608391 63.10243332 -0.66608391 63.10243332 -0.65071106 62.04202271 C-0.6198384 59.75328393 -0.60283289 57.46466235 -0.5859375 55.17578125 C-0.5672291 53.58822112 -0.54765593 52.00067096 -0.5272522 50.41313171 C-0.47589017 46.23584877 -0.43628634 42.05853357 -0.39910889 37.88110352 C-0.35909469 33.61791987 -0.30799058 29.35487086 -0.2578125 25.09179688 C-0.16100504 16.7279565 -0.07661579 8.36404959 0 0 Z " fill="#152A3A" transform="translate(291,200)"/>
<path d="M0 0 C0.33 0 0.66 0 1 0 C1 2.64 1 5.28 1 8 C1.66 8 2.32 8 3 8 C3.66 9.98 4.32 11.96 5 14 C21.335 14.495 21.335 14.495 38 15 C38 15.33 38 15.66 38 16 C33.30326066 16.75342358 28.79804823 17.12821092 24.04296875 17.1328125 C22.76615234 17.13410156 21.48933594 17.13539063 20.17382812 17.13671875 C18.85833984 17.13285156 17.54285156 17.12898438 16.1875 17.125 C14.83919176 17.12856567 13.49088438 17.13246903 12.14257812 17.13671875 C10.23702148 17.13478516 10.23702148 17.13478516 8.29296875 17.1328125 C7.1330542 17.13168457 5.97313965 17.13055664 4.77807617 17.12939453 C2 17 2 17 0 16 C0 10.72 0 5.44 0 0 Z " fill="#1D2945" transform="translate(145,161)"/>
<path d="M0 0 C0.66 0.33 1.32 0.66 2 1 C1.40917986 2.48454806 0.80187345 3.96254351 0.1875 5.4375 C-0.14894531 6.26121094 -0.48539062 7.08492188 -0.83203125 7.93359375 C-2 10 -2 10 -5 11 C-5 11.66 -5 12.32 -5 13 C-5.66 13 -6.32 13 -7 13 C-7 13.66 -7 14.32 -7 15 C-7.66 15 -8.32 15 -9 15 C-9 15.66 -9 16.32 -9 17 C-9.66 17 -10.32 17 -11 17 C-11.66 18.32 -12.32 19.64 -13 21 C-14.65 21 -16.3 21 -18 21 C-17.29875 20.34 -16.5975 19.68 -15.875 19 C-11.39114323 14.51614323 -7.86884571 9.24596429 -4.25 4.0625 C-2 1 -2 1 0 0 Z " fill="#2F638F" transform="translate(290,302)"/>
<path d="M0 0 C2.22375191 4.01055608 2.43388171 7.74279363 2.625 12.25 C2.66367188 12.99507813 2.70234375 13.74015625 2.7421875 14.5078125 C2.83605108 16.3381524 2.91909718 18.16904143 3 20 C6.3 19.67 9.6 19.34 13 19 C13.99 16.69 14.98 14.38 16 12 C16.33 12 16.66 12 17 12 C17 14.64 17 17.28 17 20 C16.44570312 20.20496094 15.89140625 20.40992188 15.3203125 20.62109375 C14.59585938 20.89050781 13.87140625 21.15992188 13.125 21.4375 C12.40570313 21.70433594 11.68640625 21.97117187 10.9453125 22.24609375 C8.96351155 22.97916854 8.96351155 22.97916854 7 24 C3.9375 24.125 3.9375 24.125 1 24 C0 23 0 23 -0.11352539 20.77514648 C-0.10828857 19.81680908 -0.10305176 18.85847168 -0.09765625 17.87109375 C-0.09443359 16.83662109 -0.09121094 15.80214844 -0.08789062 14.73632812 C-0.07951172 13.64771484 -0.07113281 12.55910156 -0.0625 11.4375 C-0.05798828 10.34501953 -0.05347656 9.25253906 -0.04882812 8.12695312 C-0.03699826 5.41791505 -0.02051543 2.70898401 0 0 Z " fill="#356796" transform="translate(226,269)"/>
<path d="M0 0 C1.04285156 0.09925781 2.08570313 0.19851563 3.16015625 0.30078125 C5.9375 0.6875 5.9375 0.6875 8.9375 1.6875 C8.9375 2.6775 8.9375 3.6675 8.9375 4.6875 C5.74925432 6.28162284 2.30853338 5.78924735 -1.1875 5.75 C-1.94160156 5.74548828 -2.69570312 5.74097656 -3.47265625 5.73632812 C-5.33597127 5.72453499 -7.19924555 5.70659942 -9.0625 5.6875 C-9.3925 4.3675 -9.7225 3.0475 -10.0625 1.6875 C-6.55564349 -0.51801699 -4.06454123 -0.41803832 0 0 Z " fill="#0A2A52" transform="translate(231.0625,296.3125)"/>
<path d="M0 0 C17.82 0 35.64 0 54 0 C54 5.94 54 11.88 54 18 C53.67 18 53.34 18 53 18 C52.94392578 16.75283203 52.94392578 16.75283203 52.88671875 15.48046875 C52.82097656 14.39378906 52.75523437 13.30710938 52.6875 12.1875 C52.62949219 11.10855469 52.57148438 10.02960938 52.51171875 8.91796875 C52.22114505 6.0357677 52.22114505 6.0357677 50.70703125 4.17578125 C47.53918135 1.99380684 44.17730488 1.86865487 40.41503906 1.79467773 C39.51440735 1.77473251 38.61377563 1.75478729 37.68585205 1.73423767 C36.24033966 1.70916893 36.24033966 1.70916893 34.765625 1.68359375 C33.77246277 1.66281265 32.77930054 1.64203156 31.75604248 1.62062073 C28.58743118 1.55530251 25.41873789 1.49632261 22.25 1.4375 C20.10025198 1.39429793 17.95051222 1.35068309 15.80078125 1.30664062 C10.53394051 1.19963929 5.26701845 1.09784009 0 1 C0 0.67 0 0.34 0 0 Z " fill="#7BABC0" transform="translate(304,124)"/>
<path d="M0 0 C1.125 3.75 1.125 3.75 0 6 C1.32 6.33 2.64 6.66 4 7 C3.01 7.33 2.02 7.66 1 8 C1.23004734 13.3907997 1.23004734 13.3907997 3.5625 18 C4.036875 18.33 4.51125 18.66 5 19 C3.79618552 21.49361571 2.54571278 23.68143083 1 26 C-0.32 25.67 -1.64 25.34 -3 25 C-3 24.01 -3 23.02 -3 22 C-2.34 22 -1.68 22 -1 22 C-1.00523682 21.36908447 -1.01047363 20.73816895 -1.01586914 20.08813477 C-1.03657826 17.24626653 -1.04964066 14.40441412 -1.0625 11.5625 C-1.07087891 10.56927734 -1.07925781 9.57605469 -1.08789062 8.55273438 C-1.09111328 7.60849609 -1.09433594 6.66425781 -1.09765625 5.69140625 C-1.10289307 4.81685791 -1.10812988 3.94230957 -1.11352539 3.04125977 C-1 1 -1 1 0 0 Z " fill="#283647" transform="translate(211,258)"/>
<path d="M0 0 C0.93423645 3.01031744 1.04449911 3.86650268 0 7 C-0.9075 7.268125 -1.815 7.53625 -2.75 7.8125 C-7.02700821 9.375253 -8.22743781 11.45728165 -11 15 C-11.66 15 -12.32 15 -13 15 C-13.680625 16.4540625 -13.680625 16.4540625 -14.375 17.9375 C-16 21 -16 21 -18 22 C-16.92442532 14.3365304 -13.96107762 11.63177808 -8 7 C-6.49211126 5.69657075 -4.99174911 4.38437021 -3.5 3.0625 C-1.75 1.53125 -1.75 1.53125 0 0 Z " fill="#4380AB" transform="translate(307,289)"/>
<path d="M0 0 C2.0625 0.4375 2.0625 0.4375 4 1 C4 1.66 4 2.32 4 3 C4.66 3 5.32 3 6 3 C6 3.66 6 4.32 6 5 C7.98 5 9.96 5 12 5 C12 6.32 12 7.64 12 9 C14.475 9.99 14.475 9.99 17 11 C17 11.66 17 12.32 17 13 C17.99 13.33 18.98 13.66 20 14 C20 14.66 20 15.32 20 16 C18.02 15.34 16.04 14.68 14 14 C14 13.34 14 12.68 14 12 C12.02 11.34 10.04 10.68 8 10 C8 9.34 8 8.68 8 8 C7.2575 7.773125 6.515 7.54625 5.75 7.3125 C2.48860409 5.75592468 1.07105025 3.91481146 -1 1 C-0.67 0.67 -0.34 0.34 0 0 Z " fill="#2A3E51" transform="translate(175,317)"/>
<path d="M0 0 C0.99 0.33 1.98 0.66 3 1 C3.38218767 2.65614657 3.71395102 4.32457024 4 6 C3.67 6.33 3.34 6.66 3 7 C2.85489109 8.60947472 2.7728889 10.22474795 2.71875 11.83984375 C2.68136719 12.82017578 2.64398438 13.80050781 2.60546875 14.81054688 C2.57066406 15.84244141 2.53585937 16.87433594 2.5 17.9375 C2.43126955 19.96759397 2.35854979 21.99755802 2.28125 24.02734375 C2.25095703 24.93218506 2.22066406 25.83702637 2.18945312 26.76928711 C2 29 2 29 1 31 C0.34 31 -0.32 31 -1 31 C-0.67 20.77 -0.34 10.54 0 0 Z " fill="#1A4C72" transform="translate(340,234)"/>
<path d="M0 0 C0.66 0 1.32 0 2 0 C2.31217174 7.96037925 -0.48224164 13.10153881 -4 20 C-4.33 20.66 -4.66 21.32 -5 22 C-5.99 22.33 -6.98 22.66 -8 23 C-6.82508471 19.27943493 -5.47648094 15.67106349 -4 12.0625 C-2.38632158 8.08249464 -1.0835109 4.15345846 0 0 Z " fill="#0D385B" transform="translate(339,265)"/>
<path d="M0 0 C1.37273678 0.1086193 2.74928691 0.17482598 4.12597656 0.20532227 C5.32676849 0.2352401 5.32676849 0.2352401 6.55181885 0.26576233 C7.83327789 0.29083107 7.83327789 0.29083107 9.140625 0.31640625 C10.02280701 0.33718735 10.90498901 0.35796844 11.81390381 0.37937927 C14.62585831 0.44464867 17.43790445 0.50365447 20.25 0.5625 C22.15886356 0.60570673 24.06771793 0.64932171 25.9765625 0.69335938 C30.65094826 0.80030687 35.32542602 0.90163785 40 1 C40.33 0.34 40.66 -0.32 41 -1 C41 -0.01 41 0.98 41 2 C24.17 2 7.34 2 -10 2 C-10 1.34 -10 0.68 -10 0 C-6.21266043 -0.77468309 -3.69444587 -0.97123926 0 0 Z " fill="#091E34" transform="translate(155,212)"/>
<path d="M0 0 C-0.66 1.98 -1.32 3.96 -2 6 C-6.62 6.33 -11.24 6.66 -16 7 C-16 6.34 -16 5.68 -16 5 C-14.08717875 4.15787744 -12.16957527 3.32661136 -10.25 2.5 C-9.18265625 2.0359375 -8.1153125 1.571875 -7.015625 1.09375 C-4 0 -4 0 0 0 Z " fill="#0C2D45" transform="translate(299,321)"/>
<path d="M0 0 C0.33 0 0.66 0 1 0 C1 8.91 1 17.82 1 27 C-0.65 27.33 -2.3 27.66 -4 28 C-4.33 27.01 -4.66 26.02 -5 25 C-4.34 25 -3.68 25 -3 25 C-2.67 22.36 -2.34 19.72 -2 17 C-1.67 17 -1.34 17 -1 17 C-0.67 11.39 -0.34 5.78 0 0 Z " fill="#8BB6CF" transform="translate(357,151)"/>
<path d="M0 0 C1.14626322 0.97866338 2.29199788 1.95794587 3.4375 2.9375 C4.07558594 3.48277344 4.71367187 4.02804687 5.37109375 4.58984375 C6.26991149 5.36795695 7.15936528 6.15936528 8 7 C8.04063832 8.66617115 8.042721 10.33388095 8 12 C7.01 12.33 6.02 12.66 5 13 C5 12.34 5 11.68 5 11 C4.01 10.67 3.02 10.34 2 10 C2.99 9.01 3.98 8.02 5 7 C2.36893239 5.94729537 2.36893239 5.94729537 1 6 C0.01 6 -0.98 6 -2 6 C-2 5.01 -2 4.02 -2 3 C-1.34 3 -0.68 3 0 3 C0 2.01 0 1.02 0 0 Z " fill="#132C3D" transform="translate(178,300)"/>
<path d="M0 0 C0.99 0.33 1.98 0.66 3 1 C1.60068938 4.30093787 0.03783328 6.09181266 -2.8125 8.25 C-3.47894531 8.77078125 -4.14539063 9.2915625 -4.83203125 9.828125 C-7.40318024 11.21793527 -9.11943184 11.22119546 -12 11 C-11.67 10.01 -11.34 9.02 -11 8 C-10.236875 7.896875 -9.47375 7.79375 -8.6875 7.6875 C-5.78132022 6.94405866 -4.80086951 6.34113037 -3 4 C-2.67 3.01 -2.34 2.02 -2 1 C-1.34 0.67 -0.68 0.34 0 0 Z " fill="#113351" transform="translate(302,289)"/>
<path d="M0 0 C2.97 0.495 2.97 0.495 6 1 C5.67 1.99 5.34 2.98 5 4 C4.34 3.67 3.68 3.34 3 3 C3.061875 4.7015625 3.061875 4.7015625 3.125 6.4375 C3.14183841 11.14383562 2.17621777 15.46316004 1 20 C0.67 20 0.34 20 0 20 C0 13.4 0 6.8 0 0 Z " fill="#384C64" transform="translate(306,234)"/>
<path d="M0 0 C0.99 0.33 1.98 0.66 3 1 C2.91621094 1.94101563 2.83242188 2.88203125 2.74609375 3.8515625 C2.59333984 5.71941406 2.59333984 5.71941406 2.4375 7.625 C2.33308594 8.85476562 2.22867187 10.08453125 2.12109375 11.3515625 C2.00808939 14.75627462 2.30954437 17.67558398 3 21 C2.01 21.33 1.02 21.66 0 22 C0 14.74 0 7.48 0 0 Z " fill="#68B4DA" transform="translate(322,238)"/>
<path d="M0 0 C0.33 0.99 0.66 1.98 1 3 C0.00390625 4.82421875 0.00390625 4.82421875 -1.4375 6.6875 C-1.91058594 7.31011719 -2.38367188 7.93273437 -2.87109375 8.57421875 C-3.24363281 9.04472656 -3.61617188 9.51523437 -4 10 C-6 7 -6 7 -5.8125 4.4375 C-4.77342756 1.32028268 -3.39691367 0 0 0 Z M-9 5 C-8.01 5.99 -7.02 6.98 -6 8 C-6.99 7.67 -7.98 7.34 -9 7 C-9 6.34 -9 5.68 -9 5 Z " fill="#3D97C9" transform="translate(329,287)"/>
<path d="M0 0 C1.98 0 3.96 0 6 0 C6 6.93 6 13.86 6 21 C5.67 21 5.34 21 5 21 C4.67 15.72 4.34 10.44 4 5 C3.34 5 2.68 5 2 5 C1.34 3.35 0.68 1.7 0 0 Z " fill="#5DBCE3" transform="translate(334,235)"/>
<path d="M0 0 C3.3 0.33 6.6 0.66 10 1 C10 6.94 10 12.88 10 19 C9.67 19 9.34 19 9 19 C8.67 13.72 8.34 8.44 8 3 C5.69 3 3.38 3 1 3 C0.67 2.01 0.34 1.02 0 0 Z " fill="#465A6C" transform="translate(348,195)"/>
<path d="M0 0 C0 2.31 0 4.62 0 7 C-0.37125 6.34 -0.7425 5.68 -1.125 5 C-2.88661373 2.70619922 -2.88661373 2.70619922 -5.9375 2.5625 C-9.21674143 3.03096306 -10.59865068 3.78336986 -13 6 C-13.66 5.67 -14.32 5.34 -15 5 C-15 3.68 -15 2.36 -15 1 C-12.68753088 0.83290546 -10.37502385 0.66633538 -8.0625 0.5 C-6.77472656 0.4071875 -5.48695313 0.314375 -4.16015625 0.21875 C-1 0 -1 0 0 0 Z " fill="#133A5B" transform="translate(161,234)"/>
<path d="M0 0 C0 0.33 0 0.66 0 1 C-3.12492251 1.05791844 -6.24970766 1.09356746 -9.375 1.125 C-10.26445312 1.14175781 -11.15390625 1.15851563 -12.0703125 1.17578125 C-12.92109375 1.18222656 -13.771875 1.18867188 -14.6484375 1.1953125 C-15.82672119 1.21102295 -15.82672119 1.21102295 -17.02880859 1.22705078 C-19 1 -19 1 -21 -1 C-6.21867882 -2.51708428 -6.21867882 -2.51708428 0 0 Z " fill="#2C4668" transform="translate(336,177)"/>
<path d="M0 0 C0.33 0 0.66 0 1 0 C1 2.64 1 5.28 1 8 C1.66 8 2.32 8 3 8 C5 14.75 5 14.75 5 17 C3.35 16.67 1.7 16.34 0 16 C0 10.72 0 5.44 0 0 Z " fill="#1B344D" transform="translate(145,161)"/>
<path d="M0 0 C2.72393906 3.63191875 5.36836492 7.30148583 8 11 C7.67 11.66 7.34 12.32 7 13 C6.01 13 5.02 13 4 13 C4 12.34 4 11.68 4 11 C3.01 11.33 2.02 11.66 1 12 C0.67 8.04 0.34 4.08 0 0 Z " fill="#4E6071" transform="translate(199,265)"/>
<path d="M0 0 C1.140625 3.6875 1.140625 3.6875 -0.125 6.5 C-2.14578128 9.19437503 -4.28793233 11.02092359 -7 13 C-7.66 12.67 -8.32 12.34 -9 12 C-8.1646875 10.9790625 -8.1646875 10.9790625 -7.3125 9.9375 C-4.76009618 6.69525731 -2.37939901 3.37081527 0 0 Z " fill="#284E73" transform="translate(288,303)"/>
<path d="M0 0 C0.99 0.66 1.98 1.32 3 2 C1.90716423 3.03295436 0.80029421 4.05107835 -0.3125 5.0625 C-0.92738281 5.63097656 -1.54226563 6.19945312 -2.17578125 6.78515625 C-2.77777344 7.18605469 -3.37976563 7.58695312 -4 8 C-4.99 7.67 -5.98 7.34 -7 7 C-7.33 5.35 -7.66 3.7 -8 2 C-7.34 2 -6.68 2 -6 2 C-6 2.66 -6 3.32 -6 4 C-5.01 4 -4.02 4 -3 4 C-1.29467677 2.05990478 -1.29467677 2.05990478 0 0 Z " fill="#408BBC" transform="translate(316,303)"/>
<path d="M0 0 C1.96126162 0.06439964 3.92036056 0.20156676 5.875 0.375 C6.94492188 0.46523438 8.01484375 0.55546875 9.1171875 0.6484375 C12 1 12 1 15 2 C15 2.99 15 3.98 15 5 C14.01 4.67 13.02 4.34 12 4 C9.16745739 3.73484371 6.33540184 3.55612734 3.49609375 3.37890625 C1 3 1 3 -1 1 C-0.67 0.67 -0.34 0.34 0 0 Z " fill="#0D395F" transform="translate(225,296)"/>
<path d="M0 0 C0.66 0 1.32 0 2 0 C-0.88602941 10.19730392 -0.88602941 10.19730392 -6 14 C-6.66 13.67 -7.32 13.34 -8 13 C-7.59007812 12.48050781 -7.18015625 11.96101563 -6.7578125 11.42578125 C-3.92363424 7.7576223 -1.40171967 4.48550294 0 0 Z " fill="#5799C1" transform="translate(316,275)"/>
<path d="M0 0 C0.99 0.66 1.98 1.32 3 2 C0.62997587 4.61950036 -1.95453979 6.23683883 -5 8 C-5.33 8.33 -5.66 8.66 -6 9 C-7.66617115 9.04063832 -9.33388095 9.042721 -11 9 C-9.948125 8.1646875 -9.948125 8.1646875 -8.875 7.3125 C-5.88655739 4.90875268 -2.94059762 2.46189568 0 0 Z " fill="#DFF0F9" transform="translate(255,290)"/>
<path d="M0 0 C-0.66 1.98 -1.32 3.96 -2 6 C-2.598125 5.690625 -3.19625 5.38125 -3.8125 5.0625 C-6.08956772 3.89790296 -6.08956772 3.89790296 -9 3 C-5.55930376 0.70620251 -4.27709699 0 0 0 Z " fill="#173144" transform="translate(248,321)"/>
<path d="M0 0 C0.99 0 1.98 0 3 0 C3.625 2.3125 3.625 2.3125 4 5 C3.01 6.485 3.01 6.485 2 8 C1.34 8 0.68 8 0 8 C-0.66 6.02 -1.32 4.04 -2 2 C-1.34 1.34 -0.68 0.68 0 0 Z " fill="#112B3F" transform="translate(260,311)"/>
<path d="M0 0 C0.93423645 3.01031744 1.04449911 3.86650268 0 7 C-1.98 7.33 -3.96 7.66 -6 8 C-4.55746343 4.63408134 -2.66735273 2.48952921 0 0 Z " fill="#4B8BB5" transform="translate(307,289)"/>
<path d="M0 0 C1.65 0.33 3.3 0.66 5 1 C4.67 2.98 4.34 4.96 4 7 C3.34 7 2.68 7 2 7 C2 6.01 2 5.02 2 4 C1.01 3.67 0.02 3.34 -1 3 C-0.67 2.01 -0.34 1.02 0 0 Z " fill="#51A7D5" transform="translate(331,272)"/>
<path d="M0 0 C0.66 0 1.32 0 2 0 C3.0712828 6.02596573 3.09945415 11.88909517 3 18 C2.67 18 2.34 18 2 18 C0.96409801 12.94997778 0.89748328 8.12583611 1 3 C0.34 3 -0.32 3 -1 3 C-0.67 2.01 -0.34 1.02 0 0 Z " fill="#294961" transform="translate(193,237)"/>
<path d="M0 0 C1.125 1.5625 1.125 1.5625 2 4 C1.13748446 8.39098819 -0.0334558 11.62892704 -3 15 C-3.66 14.67 -4.32 14.34 -5 14 C-4.72285156 13.40832031 -4.44570313 12.81664062 -4.16015625 12.20703125 C-1.44225847 6.30953569 -1.44225847 6.30953569 0 0 Z " fill="#425362" transform="translate(275,284)"/>
<path d="M0 0 C-0.66 1.98 -1.32 3.96 -2 6 C-3.875 5.75 -3.875 5.75 -6 5 C-7.25 2.9375 -7.25 2.9375 -8 1 C-5.23735711 0.40267181 -2.83967231 0 0 0 Z " fill="#2C4055" transform="translate(176,310)"/>
<path d="M0 0 C1.32 0 2.64 0 4 0 C4 0.66 4 1.32 4 2 C4.66 2.33 5.32 2.66 6 3 C5.67 4.32 5.34 5.64 5 7 C4.01 6.67 3.02 6.34 2 6 C0.8125 2.9375 0.8125 2.9375 0 0 Z " fill="#192D43" transform="translate(185,271)"/>
<path d="M0 0 C0.66 0.99 1.32 1.98 2 3 C1.34 3 0.68 3 0 3 C0.2475 3.7425 0.495 4.485 0.75 5.25 C1 8 1 8 -0.8125 10.3125 C-3 12 -3 12 -5 12 C-3.68938409 7.76570244 -2.05643741 3.92592596 0 0 Z " fill="#57697C" transform="translate(303,264)"/>
<path d="M0 0 C3.05933651 3.05933651 3.43653895 3.51399042 3.875 7.5 C3.97554687 8.2734375 4.07609375 9.046875 4.1796875 9.84375 C4 12 4 12 1 15 C0.67 10.05 0.34 5.1 0 0 Z " fill="#23374B" transform="translate(210,176)"/>
<path d="M0 0 C-1.5625 2.0625 -1.5625 2.0625 -4 4 C-7.75 3.75 -7.75 3.75 -11 3 C-11 2.34 -11 1.68 -11 1 C-7.27569643 0.30710631 -3.78916254 -0.11144596 0 0 Z " fill="#0D304F" transform="translate(279,328)"/>
<path d="M0 0 C0.33 0.66 0.66 1.32 1 2 C-0.65 2.66 -2.3 3.32 -4 4 C-4 4.66 -4 5.32 -4 6 C-5.98 6 -7.96 6 -10 6 C-10 5.34 -10 4.68 -10 4 C-6.7 2.68 -3.4 1.36 0 0 Z " fill="#0A3351" transform="translate(293,322)"/>
<path d="M0 0 C1.5625 1.3125 1.5625 1.3125 3 3 C3.99 3.66 4.98 4.32 6 5 C-0.625 5.25 -0.625 5.25 -4 3 C-4 2.34 -4 1.68 -4 1 C-2.1875 0.3125 -2.1875 0.3125 0 0 Z " fill="#183045" transform="translate(214,296)"/>
<path d="M0 0 C1.32 0.66 2.64 1.32 4 2 C3.34 2 2.68 2 2 2 C1.34 5.63 0.68 9.26 0 13 C-0.33 13 -0.66 13 -1 13 C-1.02686553 11.02090602 -1.04633375 9.04171029 -1.0625 7.0625 C-1.07410156 5.96035156 -1.08570313 4.85820312 -1.09765625 3.72265625 C-1 1 -1 1 0 0 Z " fill="#6CC3E2" transform="translate(228,160)"/>
<path d="M0 0 C1.65 0.33 3.3 0.66 5 1 C5 2.32 5 3.64 5 5 C2.69 5.33 0.38 5.66 -2 6 C-2 5.34 -2 4.68 -2 4 C-1.01 4 -0.02 4 1 4 C0.67 2.68 0.34 1.36 0 0 Z " fill="#132941" transform="translate(280,337)"/>
<path d="M0 0 C1.98 0 3.96 0 6 0 C6.33 0.99 6.66 1.98 7 3 C7.99 3.33 8.98 3.66 10 4 C10 4.66 10 5.32 10 6 C8.02 5.34 6.04 4.68 4 4 C4 3.34 4 2.68 4 2 C2.68 1.34 1.36 0.68 0 0 Z " fill="#4C5966" transform="translate(185,327)"/>
<path d="M0 0 C0 3.99904969 -1.72586967 5.80200422 -4 9 C-4.66 8.34 -5.32 7.68 -6 7 C-5.625 4.875 -5.625 4.875 -5 3 C-4.34 3 -3.68 3 -3 3 C-1.37485532 1.54166642 -1.37485532 1.54166642 0 0 Z " fill="#516273" transform="translate(343,298)"/>
<path d="M0 0 C0.33 0 0.66 0 1 0 C1 2.64 1 5.28 1 8 C-1.64 8.33 -4.28 8.66 -7 9 C-6.401875 8.814375 -5.80375 8.62875 -5.1875 8.4375 C-1.90018201 6.27726247 -1.35145313 3.64892345 0 0 Z " fill="#376791" transform="translate(242,281)"/>
<path d="M0 0 C4.62 0 9.24 0 14 0 C14 0.33 14 0.66 14 1 C13.40832031 1.04898438 12.81664062 1.09796875 12.20703125 1.1484375 C7.80895528 1.56456867 4.03071103 2.04965595 0 4 C0 2.68 0 1.36 0 0 Z " fill="#2B4E69" transform="translate(277,163)"/>
<path d="M0 0 C0.66 0.33 1.32 0.66 2 1 C1.67 1.99 1.34 2.98 1 4 C1.66 4.33 2.32 4.66 3 5 C0.36 5 -2.28 5 -5 5 C-3.35 3.35 -1.7 1.7 0 0 Z " fill="#356084" transform="translate(271,324)"/>
<path d="M0 0 C0.928125 0.2784375 0.928125 0.2784375 1.875 0.5625 C4.04160178 1.23686176 4.04160178 1.23686176 6 0 C6.66 0.66 7.32 1.32 8 2 C6.35 2.33 4.7 2.66 3 3 C3.33 4.32 3.66 5.64 4 7 C1.49962266 4.82575883 0.56371414 3.26954202 0 0 Z " fill="#455466" transform="translate(158,296)"/>
<path d="M0 0 C0.33 0 0.66 0 1 0 C1.36923077 6.52307692 1.36923077 6.52307692 -0.5 8.9375 C-0.995 9.288125 -1.49 9.63875 -2 10 C-3 8 -3 8 -2.44140625 6.0546875 C-2.15136719 5.33539063 -1.86132812 4.61609375 -1.5625 3.875 C-1.27503906 3.15054687 -0.98757813 2.42609375 -0.69140625 1.6796875 C-0.46324219 1.12539063 -0.23507812 0.57109375 0 0 Z " fill="#62A4CB" transform="translate(320,266)"/>
<path d="M0 0 C0.66 0 1.32 0 2 0 C2 0.99 2 1.98 2 3 C-1.33333333 6 -1.33333333 6 -4 6 C-4 5.34 -4 4.68 -4 4 C-4.66 4 -5.32 4 -6 4 C-5.67 3.34 -5.34 2.68 -5 2 C-3.02 2.495 -3.02 2.495 -1 3 C-0.67 2.01 -0.34 1.02 0 0 Z " fill="#3E5060" transform="translate(323,320)"/>
<path d="M0 0 C1.32 0 2.64 0 4 0 C4 0.99 4 1.98 4 3 C4.99 3.66 5.98 4.32 7 5 C4.69 5 2.38 5 0 5 C0 3.35 0 1.7 0 0 Z " fill="#2D73A3" transform="translate(272,323)"/>
<path d="M0 0 C2.0625 0.4375 2.0625 0.4375 4 1 C4 1.66 4 2.32 4 3 C4.66 3.33 5.32 3.66 6 4 C5.67 4.66 5.34 5.32 5 6 C1.83884224 4.63016497 1.0072908 4.0109362 -1 1 C-0.67 0.67 -0.34 0.34 0 0 Z " fill="#4C6071" transform="translate(175,317)"/>
<path d="M0 0 C8.57142857 -0.14285714 8.57142857 -0.14285714 12 1 C11.67 1.99 11.34 2.98 11 4 C10.01 4 9.02 4 8 4 C7.67 3.34 7.34 2.68 7 2 C4.67843403 1.59270772 2.3431213 1.25561323 0 1 C0 0.67 0 0.34 0 0 Z " fill="#45728B" transform="translate(328,162)"/>
<path d="M0 0 C0.66 0.66 1.32 1.32 2 2 C1.67 2.99 1.34 3.98 1 5 C-0.98 5 -2.96 5 -5 5 C-5 4.34 -5 3.68 -5 3 C-2.5 1.375 -2.5 1.375 0 0 Z " fill="#0F2C3E" transform="translate(309,315)"/>
<path d="M0 0 C0.33 0 0.66 0 1 0 C1.08159574 4.16138263 0.98248524 7.9472484 0 12 C-1.5471219 9.5428064 -2.04484402 8.367721 -1.6875 5.4375 C-1.17232879 3.61098388 -0.60013019 1.80039058 0 0 Z " fill="#3E5165" transform="translate(354,264)"/>
<path d="M0 0 C0 2.31 0 4.62 0 7 C-0.350625 6.360625 -0.70125 5.72125 -1.0625 5.0625 C-3.77184206 2.17836168 -6.15858911 2.2899178 -10 2 C-10 1.67 -10 1.34 -10 1 C-8.5209084 0.83266843 -7.04172444 0.66615314 -5.5625 0.5 C-4.32693359 0.36078125 -4.32693359 0.36078125 -3.06640625 0.21875 C-1 0 -1 0 0 0 Z " fill="#1D435F" transform="translate(161,234)"/>
<path d="M0 0 C0 0.66 0 1.32 0 2 C-2.64 2.33 -5.28 2.66 -8 3 C-8 2.34 -8 1.68 -8 1 C-5.29120665 -0.35439668 -2.99066732 -0.06501451 0 0 Z " fill="#607685" transform="translate(189,123)"/>
<path d="M0 0 C0.99 1.32 1.98 2.64 3 4 C2.01 4.66 1.02 5.32 0 6 C-0.99 5.01 -1.98 4.02 -3 3 C-2.01 2.01 -1.02 1.02 0 0 Z " fill="#102A40" transform="translate(189,322)"/>
<path d="M0 0 C1.98 0 3.96 0 6 0 C6.33 1.32 6.66 2.64 7 4 C6.21625 3.649375 5.4325 3.29875 4.625 2.9375 C3.75875 2.628125 2.8925 2.31875 2 2 C1.01 2.495 1.01 2.495 0 3 C0 2.01 0 1.02 0 0 Z " fill="#142A3B" transform="translate(192,316)"/>
<path d="M0 0 C2.25 0.25 2.25 0.25 4 1 C2.02 2.32 0.04 3.64 -2 5 C-2.66 4.67 -3.32 4.34 -4 4 C-2.25 1.9375 -2.25 1.9375 0 0 Z " fill="#1F3345" transform="translate(265,306)"/>
<path d="M0 0 C1.32 0.33 2.64 0.66 4 1 C3.67 2.65 3.34 4.3 3 6 C2.01 6.33 1.02 6.66 0 7 C0 4.69 0 2.38 0 0 Z " fill="#11243A" transform="translate(212,275)"/>
<path d="M0 0 C1.98 0.495 1.98 0.495 4 1 C3.34 1 2.68 1 2 1 C2 3.31 2 5.62 2 8 C0.4375 6.25 0.4375 6.25 -1 4 C-0.6875 1.75 -0.6875 1.75 0 0 Z " fill="#27485F" transform="translate(289,177)"/>
<path d="M0 0 C0.33 0.66 0.66 1.32 1 2 C1.99 1.67 2.98 1.34 4 1 C4 1.66 4 2.32 4 3 C3.34 3 2.68 3 2 3 C2.66 4.65 3.32 6.3 4 8 C3.01 8.495 3.01 8.495 2 9 C1.34 6.03 0.68 3.06 0 0 Z " fill="#4B596A" transform="translate(147,268)"/>
</svg>
